<mxfile host="app.diagrams.net" agent="Mozilla/5.0 (Macintosh; Intel Mac OS X 10_15_7) AppleWebKit/537.36 (KHTML, like Gecko) Chrome/130.0.0.0 Safari/537.36" modified="2024-10-30T13:09:12.451Z" version="24.5.5" etag="QJSXoKbjM4qbMjbhq9JC" type="github">
  <diagram name="第 1 页" id="Xf1fxZ_Qx_DVxWE_wKGi">
    <mxGraphModel dx="1735" dy="902" grid="1" gridSize="10" guides="1" tooltips="1" connect="1" arrows="1" fold="1" page="1" pageScale="1" pageWidth="827" pageHeight="1169" math="0" shadow="0">
      <root>
        <mxCell id="0" />
        <mxCell id="1" parent="0" />
        <mxCell id="TO-9VxQ2qNv1OB0GnopO-17" style="edgeStyle=orthogonalEdgeStyle;rounded=0;orthogonalLoop=1;jettySize=auto;html=1;exitX=0.25;exitY=1;exitDx=0;exitDy=0;entryX=0.25;entryY=0;entryDx=0;entryDy=0;" edge="1" parent="1" source="l3XLrASRTkj1tUgQjpMN-1" target="l3XLrASRTkj1tUgQjpMN-4">
          <mxGeometry relative="1" as="geometry" />
        </mxCell>
        <mxCell id="l3XLrASRTkj1tUgQjpMN-1" value="GateServer" style="rounded=1;whiteSpace=wrap;html=1;strokeWidth=2;fillWeight=4;hachureGap=8;hachureAngle=45;fillColor=#dae8fc;sketch=1;strokeColor=#6c8ebf;" parent="1" vertex="1">
          <mxGeometry x="230" y="140" width="120" height="60" as="geometry" />
        </mxCell>
        <mxCell id="l3XLrASRTkj1tUgQjpMN-3" value="Client" style="ellipse;whiteSpace=wrap;html=1;strokeWidth=2;fillWeight=2;hachureGap=8;fillColor=#f8cecc;fillStyle=dots;sketch=1;strokeColor=#b85450;" parent="1" vertex="1">
          <mxGeometry x="120" y="30" width="90" height="40" as="geometry" />
        </mxCell>
        <mxCell id="TO-9VxQ2qNv1OB0GnopO-18" style="edgeStyle=orthogonalEdgeStyle;rounded=0;orthogonalLoop=1;jettySize=auto;html=1;exitX=0.5;exitY=0;exitDx=0;exitDy=0;entryX=0.5;entryY=1;entryDx=0;entryDy=0;" edge="1" parent="1" source="l3XLrASRTkj1tUgQjpMN-4" target="l3XLrASRTkj1tUgQjpMN-1">
          <mxGeometry relative="1" as="geometry" />
        </mxCell>
        <mxCell id="l3XLrASRTkj1tUgQjpMN-4" value="StatusServer" style="rounded=1;whiteSpace=wrap;html=1;strokeWidth=2;fillWeight=4;hachureGap=8;hachureAngle=45;fillColor=#dae8fc;sketch=1;strokeColor=#6c8ebf;" parent="1" vertex="1">
          <mxGeometry x="230" y="350" width="120" height="60" as="geometry" />
        </mxCell>
        <mxCell id="TO-9VxQ2qNv1OB0GnopO-1" value="" style="endArrow=classic;html=1;rounded=0;exitX=1;exitY=1;exitDx=0;exitDy=0;entryX=0.25;entryY=0;entryDx=0;entryDy=0;" edge="1" parent="1" source="l3XLrASRTkj1tUgQjpMN-3" target="l3XLrASRTkj1tUgQjpMN-1">
          <mxGeometry width="50" height="50" relative="1" as="geometry">
            <mxPoint x="390" y="330" as="sourcePoint" />
            <mxPoint x="440" y="280" as="targetPoint" />
          </mxGeometry>
        </mxCell>
        <mxCell id="TO-9VxQ2qNv1OB0GnopO-2" value="http短链接，登录请求&lt;div&gt;包含用户邮箱和密码&lt;/div&gt;" style="text;html=1;align=center;verticalAlign=middle;resizable=0;points=[];autosize=1;strokeColor=none;fillColor=none;" vertex="1" parent="1">
          <mxGeometry x="220" y="60" width="140" height="40" as="geometry" />
        </mxCell>
        <mxCell id="TO-9VxQ2qNv1OB0GnopO-4" value="MySql" style="rounded=1;whiteSpace=wrap;html=1;strokeWidth=2;fillWeight=4;hachureGap=8;hachureAngle=45;fillColor=#dae8fc;sketch=1;strokeColor=#6c8ebf;" vertex="1" parent="1">
          <mxGeometry x="530" y="140" width="120" height="60" as="geometry" />
        </mxCell>
        <mxCell id="TO-9VxQ2qNv1OB0GnopO-5" value="Redis" style="rounded=1;whiteSpace=wrap;html=1;strokeWidth=2;fillWeight=4;hachureGap=8;hachureAngle=45;fillColor=#dae8fc;sketch=1;strokeColor=#6c8ebf;" vertex="1" parent="1">
          <mxGeometry x="690" y="280" width="120" height="60" as="geometry" />
        </mxCell>
        <mxCell id="TO-9VxQ2qNv1OB0GnopO-7" value="" style="endArrow=classic;html=1;rounded=0;exitX=1;exitY=0.25;exitDx=0;exitDy=0;entryX=0;entryY=0.25;entryDx=0;entryDy=0;" edge="1" parent="1" source="l3XLrASRTkj1tUgQjpMN-1" target="TO-9VxQ2qNv1OB0GnopO-4">
          <mxGeometry width="50" height="50" relative="1" as="geometry">
            <mxPoint x="380" y="260" as="sourcePoint" />
            <mxPoint x="430" y="210" as="targetPoint" />
          </mxGeometry>
        </mxCell>
        <mxCell id="TO-9VxQ2qNv1OB0GnopO-8" value="数据库验证登录合法性" style="text;html=1;align=center;verticalAlign=middle;resizable=0;points=[];autosize=1;strokeColor=none;fillColor=none;rotation=0;" vertex="1" parent="1">
          <mxGeometry x="370" y="120" width="140" height="30" as="geometry" />
        </mxCell>
        <mxCell id="TO-9VxQ2qNv1OB0GnopO-10" value="gRPC请求，&lt;div&gt;分发一个聊天服务器&lt;/div&gt;" style="text;html=1;align=center;verticalAlign=middle;resizable=0;points=[];autosize=1;strokeColor=none;fillColor=none;" vertex="1" parent="1">
          <mxGeometry x="130" y="240" width="130" height="40" as="geometry" />
        </mxCell>
        <mxCell id="TO-9VxQ2qNv1OB0GnopO-12" value="查到负载最低的服务器&lt;div&gt;根据userid生成一个随机token&lt;/div&gt;&lt;div&gt;并将 userid, token加入redis&lt;/div&gt;&lt;div&gt;随后将查到的server的ip信息&lt;/div&gt;&lt;div&gt;以及token装填rpc返回给Gate&lt;/div&gt;" style="text;html=1;align=center;verticalAlign=middle;resizable=0;points=[];autosize=1;strokeColor=none;fillColor=none;" vertex="1" parent="1">
          <mxGeometry x="280" y="240" width="180" height="90" as="geometry" />
        </mxCell>
        <mxCell id="TO-9VxQ2qNv1OB0GnopO-14" value="存一下 (userid, token)" style="text;html=1;align=center;verticalAlign=middle;resizable=0;points=[];autosize=1;strokeColor=none;fillColor=none;rotation=0;" vertex="1" parent="1">
          <mxGeometry x="440" y="360" width="140" height="30" as="geometry" />
        </mxCell>
        <mxCell id="TO-9VxQ2qNv1OB0GnopO-15" value="" style="endArrow=classic;html=1;rounded=0;exitX=0;exitY=0;exitDx=0;exitDy=0;entryX=0.5;entryY=1;entryDx=0;entryDy=0;" edge="1" parent="1" source="l3XLrASRTkj1tUgQjpMN-1" target="l3XLrASRTkj1tUgQjpMN-3">
          <mxGeometry width="50" height="50" relative="1" as="geometry">
            <mxPoint x="30" y="200" as="sourcePoint" />
            <mxPoint x="80" y="150" as="targetPoint" />
          </mxGeometry>
        </mxCell>
        <mxCell id="TO-9VxQ2qNv1OB0GnopO-16" value="组装rpc回包&lt;div&gt;包含分配的server信息&lt;/div&gt;&lt;div&gt;ip，token, uid等&lt;/div&gt;" style="text;html=1;align=center;verticalAlign=middle;resizable=0;points=[];autosize=1;strokeColor=none;fillColor=none;" vertex="1" parent="1">
          <mxGeometry x="70" y="90" width="140" height="60" as="geometry" />
        </mxCell>
        <mxCell id="TO-9VxQ2qNv1OB0GnopO-19" value="" style="endArrow=classic;html=1;rounded=0;entryX=0;entryY=0.5;entryDx=0;entryDy=0;" edge="1" parent="1" target="TO-9VxQ2qNv1OB0GnopO-5">
          <mxGeometry width="50" height="50" relative="1" as="geometry">
            <mxPoint x="350" y="380" as="sourcePoint" />
            <mxPoint x="400" y="330" as="targetPoint" />
          </mxGeometry>
        </mxCell>
        <mxCell id="TO-9VxQ2qNv1OB0GnopO-20" value="StatusServer" style="rounded=1;whiteSpace=wrap;html=1;strokeWidth=2;fillWeight=4;hachureGap=8;hachureAngle=45;fillColor=#dae8fc;sketch=1;strokeColor=#6c8ebf;" vertex="1" parent="1">
          <mxGeometry x="70" y="540" width="120" height="60" as="geometry" />
        </mxCell>
        <mxCell id="TO-9VxQ2qNv1OB0GnopO-21" value="StatusServer" style="rounded=1;whiteSpace=wrap;html=1;strokeWidth=2;fillWeight=4;hachureGap=8;hachureAngle=45;fillColor=#dae8fc;sketch=1;strokeColor=#6c8ebf;" vertex="1" parent="1">
          <mxGeometry x="370" y="540" width="120" height="60" as="geometry" />
        </mxCell>
        <mxCell id="TO-9VxQ2qNv1OB0GnopO-22" value="" style="endArrow=classic;html=1;rounded=0;exitX=0;exitY=0.5;exitDx=0;exitDy=0;entryX=0;entryY=0;entryDx=0;entryDy=0;" edge="1" parent="1" source="l3XLrASRTkj1tUgQjpMN-3" target="TO-9VxQ2qNv1OB0GnopO-20">
          <mxGeometry width="50" height="50" relative="1" as="geometry">
            <mxPoint x="20" y="320" as="sourcePoint" />
            <mxPoint x="70" y="270" as="targetPoint" />
          </mxGeometry>
        </mxCell>
        <mxCell id="TO-9VxQ2qNv1OB0GnopO-23" value="长连接建立" style="text;html=1;align=center;verticalAlign=middle;resizable=0;points=[];autosize=1;strokeColor=none;fillColor=none;" vertex="1" parent="1">
          <mxGeometry x="20" y="280" width="80" height="30" as="geometry" />
        </mxCell>
        <mxCell id="TO-9VxQ2qNv1OB0GnopO-24" value="token验证并返回client主要信息" style="text;html=1;align=center;verticalAlign=middle;resizable=0;points=[];autosize=1;strokeColor=none;fillColor=none;" vertex="1" parent="1">
          <mxGeometry x="30" y="610" width="190" height="30" as="geometry" />
        </mxCell>
        <mxCell id="TO-9VxQ2qNv1OB0GnopO-26" value="" style="endArrow=classic;html=1;rounded=0;entryX=0.25;entryY=1;entryDx=0;entryDy=0;" edge="1" parent="1" target="TO-9VxQ2qNv1OB0GnopO-5">
          <mxGeometry width="50" height="50" relative="1" as="geometry">
            <mxPoint x="190" y="540" as="sourcePoint" />
            <mxPoint x="240" y="490" as="targetPoint" />
          </mxGeometry>
        </mxCell>
        <mxCell id="TO-9VxQ2qNv1OB0GnopO-27" value="负载+1" style="text;html=1;align=center;verticalAlign=middle;resizable=0;points=[];autosize=1;strokeColor=none;fillColor=none;" vertex="1" parent="1">
          <mxGeometry x="365" y="430" width="60" height="30" as="geometry" />
        </mxCell>
        <mxCell id="TO-9VxQ2qNv1OB0GnopO-28" value="并存下对应的userid所在的server ip" style="text;html=1;align=center;verticalAlign=middle;resizable=0;points=[];autosize=1;strokeColor=none;fillColor=none;" vertex="1" parent="1">
          <mxGeometry x="390" y="450" width="210" height="30" as="geometry" />
        </mxCell>
        <mxCell id="TO-9VxQ2qNv1OB0GnopO-29" value="" style="endArrow=classic;html=1;rounded=0;entryX=0.357;entryY=1.047;entryDx=0;entryDy=0;entryPerimeter=0;" edge="1" parent="1" target="l3XLrASRTkj1tUgQjpMN-3">
          <mxGeometry width="50" height="50" relative="1" as="geometry">
            <mxPoint x="90" y="540" as="sourcePoint" />
            <mxPoint x="140" y="490" as="targetPoint" />
          </mxGeometry>
        </mxCell>
        <mxCell id="TO-9VxQ2qNv1OB0GnopO-30" value="回复建立连接成功&lt;div&gt;客户端跳转到聊天界面&lt;/div&gt;" style="text;html=1;align=center;verticalAlign=middle;resizable=0;points=[];autosize=1;strokeColor=none;fillColor=none;" vertex="1" parent="1">
          <mxGeometry x="100" y="420" width="140" height="40" as="geometry" />
        </mxCell>
      </root>
    </mxGraphModel>
  </diagram>
</mxfile>
